<svg width="42" height="42" viewBox="0 0 42 42" fill="none" xmlns="http://www.w3.org/2000/svg">
<rect width="42" height="42" rx="12" fill="#0048FF"/>
<path d="M27.7222 31.6667L21 24.8889C20.6296 25.037 20.2546 25.1481 19.875 25.2222C19.4954 25.2963 19.0926 25.3333 18.6667 25.3333C16.8148 25.3333 15.2407 24.6852 13.9444 23.3889C12.6481 22.0926 12 20.5185 12 18.6667C12 18 12.0926 17.3657 12.2778 16.7639C12.463 16.162 12.7222 15.5926 13.0556 15.0556L17.1111 19.1111L19.1111 17.1111L15.0556 13.0556C15.5926 12.7222 16.162 12.463 16.7639 12.2778C17.3657 12.0926 18 12 18.6667 12C20.5185 12 22.0926 12.6481 23.3889 13.9444C24.6852 15.2407 25.3333 16.8148 25.3333 18.6667C25.3333 19.0926 25.2963 19.4954 25.2222 19.875C25.1481 20.2546 25.037 20.6296 24.8889 21L31.6667 27.7222C31.8889 27.9444 32 28.213 32 28.5278C32 28.8426 31.8889 29.1111 31.6667 29.3333L29.3333 31.6667C29.1111 31.8889 28.8426 32 28.5278 32C28.213 32 27.9444 31.8889 27.7222 31.6667ZM28.5278 29.3056L29.2778 28.5556L22.1667 21.4444C22.5 21.0741 22.7407 20.6435 22.8889 20.1528C23.037 19.662 23.1111 19.1667 23.1111 18.6667C23.1111 17.5556 22.7546 16.588 22.0417 15.7639C21.3287 14.9398 20.4444 14.4444 19.3889 14.2778L21.4444 16.3333C21.6667 16.5556 21.7778 16.8148 21.7778 17.1111C21.7778 17.4074 21.6667 17.6667 21.4444 17.8889L17.8889 21.4444C17.6667 21.6667 17.4074 21.7778 17.1111 21.7778C16.8148 21.7778 16.5556 21.6667 16.3333 21.4444L14.2778 19.3889C14.4444 20.4444 14.9398 21.3287 15.7639 22.0417C16.588 22.7546 17.5556 23.1111 18.6667 23.1111C19.1481 23.1111 19.6296 23.037 20.1111 22.8889C20.5926 22.7407 21.0278 22.5093 21.4167 22.1944L28.5278 29.3056Z" fill="white"/>
</svg>
