<svg width="28" height="28" viewBox="0 0 28 28" fill="none" xmlns="http://www.w3.org/2000/svg">
<path d="M16.0953 4.82541C14.9492 3.64169 13.0507 3.64169 11.9046 4.82541L6.30636 10.6071C5.98485 10.9391 5.7688 11.3589 5.68543 11.8135C5.00555 15.5212 4.95536 19.3169 5.53698 23.0412L5.7429 24.3598C5.80795 24.7762 6.16665 25.0833 6.58818 25.0833H10.5C10.8221 25.0833 11.0833 24.8221 11.0833 24.4999V16.3333H16.9166V24.4999C16.9166 24.8221 17.1778 25.0833 17.5 25.0833H21.4117C21.8332 25.0833 22.1919 24.7762 22.257 24.3598L22.4629 23.0412C23.0445 19.3169 22.9943 15.5212 22.3144 11.8135C22.2311 11.3589 22.015 10.9391 21.6935 10.6071L16.0953 4.82541Z" fill="#386BF6"/>
</svg>
