<svg width="42" height="42" viewBox="0 0 42 42" fill="none" xmlns="http://www.w3.org/2000/svg">
<rect width="42" height="42" rx="12" fill="#0048FF"/>
<path d="M11 32V12.4444C11 11.7722 11.2374 11.1968 11.7121 10.7181C12.1869 10.2394 12.7576 10 13.4242 10H20.697C21.3636 10 21.9343 10.2394 22.4091 10.7181C22.8838 11.1968 23.1212 11.7722 23.1212 12.4444V21H24.3333C25 21 25.5707 21.2394 26.0455 21.7181C26.5202 22.1968 26.7576 22.7722 26.7576 23.4444V28.9444C26.7576 29.2907 26.8737 29.581 27.1061 29.8153C27.3384 30.0495 27.6263 30.1667 27.9697 30.1667C28.3131 30.1667 28.601 30.0495 28.8333 29.8153C29.0657 29.581 29.1818 29.2907 29.1818 28.9444V20.1444C29 20.2463 28.8081 20.3125 28.6061 20.3431C28.404 20.3736 28.1919 20.3889 27.9697 20.3889C27.1212 20.3889 26.404 20.0935 25.8182 19.5028C25.2323 18.912 24.9394 18.1889 24.9394 17.3333C24.9394 16.6815 25.1162 16.0958 25.4697 15.5764C25.8232 15.0569 26.2929 14.6852 26.8788 14.4611L24.3333 11.8944L25.6061 10.6111L30.0909 15.0111C30.3939 15.3167 30.6212 15.6731 30.7727 16.0806C30.9242 16.488 31 16.9056 31 17.3333V28.9444C31 29.8 30.7071 30.5231 30.1212 31.1139C29.5354 31.7046 28.8182 32 27.9697 32C27.1212 32 26.404 31.7046 25.8182 31.1139C25.2323 30.5231 24.9394 29.8 24.9394 28.9444V22.8333H23.1212V32H11ZM13.4242 18.5556H20.697V12.4444H13.4242V18.5556ZM27.9697 18.5556C28.3131 18.5556 28.601 18.4384 28.8333 18.2042C29.0657 17.9699 29.1818 17.6796 29.1818 17.3333C29.1818 16.987 29.0657 16.6968 28.8333 16.4625C28.601 16.2282 28.3131 16.1111 27.9697 16.1111C27.6263 16.1111 27.3384 16.2282 27.1061 16.4625C26.8737 16.6968 26.7576 16.987 26.7576 17.3333C26.7576 17.6796 26.8737 17.9699 27.1061 18.2042C27.3384 18.4384 27.6263 18.5556 27.9697 18.5556ZM13.4242 29.5556H20.697V21H13.4242V29.5556Z" fill="white"/>
</svg>
