<svg width="42" height="42" viewBox="0 0 42 42" fill="none" xmlns="http://www.w3.org/2000/svg">
<rect width="42" height="42" rx="12" fill="#0048FF"/>
<path d="M30.53 31L25.595 26.0526C24.8775 26.614 24.0856 27.0526 23.2194 27.3684C22.3531 27.6842 21.43 27.8421 20.45 27.8421C18.875 27.8421 17.4531 27.4561 16.1844 26.6842C14.9156 25.9123 13.9137 24.8947 13.1788 23.6316H15.7512C16.3462 24.2807 17.0419 24.7939 17.8381 25.1711C18.6344 25.5482 19.505 25.7368 20.45 25.7368C22.2 25.7368 23.6875 25.1228 24.9125 23.8947C26.1375 22.6667 26.75 21.1754 26.75 19.4211C26.75 17.6667 26.1375 16.1754 24.9125 14.9474C23.6875 13.7193 22.2 13.1053 20.45 13.1053C18.805 13.1053 17.3831 13.6623 16.1844 14.7763C14.9856 15.8904 14.3162 17.2632 14.1762 18.8947H12.0762C12.2162 16.6667 13.0869 14.7939 14.6881 13.2763C16.2894 11.7588 18.21 11 20.45 11C22.795 11 24.7812 11.8158 26.4087 13.4474C28.0362 15.0789 28.85 17.0702 28.85 19.4211C28.85 20.4035 28.6925 21.3289 28.3775 22.1974C28.0625 23.0658 27.625 23.8596 27.065 24.5789L32 29.5263L30.53 31ZM19.3212 23.6316L17.6675 18.1579L16.3025 22.0526H11V20.4737H15.2L16.9325 15.4737H18.5075L20.1087 20.8421L21.2375 17.3158H22.8125L24.3875 20.4737H25.175V22.0526H23.4162L22.1825 19.5789L20.87 23.6316H19.3212Z" fill="white"/>
</svg>
