<svg width="42" height="42" viewBox="0 0 42 42" fill="none" xmlns="http://www.w3.org/2000/svg">
<rect width="42" height="42" rx="12" fill="#0048FF"/>
<path d="M27.85 30.975C27.7167 30.975 27.5917 30.9542 27.475 30.9125C27.3583 30.8708 27.25 30.8 27.15 30.7L22.05 25.6C21.95 25.5 21.8792 25.3917 21.8375 25.275C21.7958 25.1583 21.775 25.0333 21.775 24.9C21.775 24.7667 21.7958 24.6417 21.8375 24.525C21.8792 24.4083 21.95 24.3 22.05 24.2L24.175 22.075C24.275 21.975 24.3833 21.9042 24.5 21.8625C24.6167 21.8208 24.7417 21.8 24.875 21.8C25.0083 21.8 25.1333 21.8208 25.25 21.8625C25.3667 21.9042 25.475 21.975 25.575 22.075L30.675 27.175C30.775 27.275 30.8458 27.3833 30.8875 27.5C30.9292 27.6167 30.95 27.7417 30.95 27.875C30.95 28.0083 30.9292 28.1333 30.8875 28.25C30.8458 28.3667 30.775 28.475 30.675 28.575L28.55 30.7C28.45 30.8 28.3417 30.8708 28.225 30.9125C28.1083 30.9542 27.9833 30.975 27.85 30.975ZM27.85 28.6L28.575 27.875L24.9 24.2L24.175 24.925L27.85 28.6ZM14.125 31C13.9917 31 13.8625 30.975 13.7375 30.925C13.6125 30.875 13.5 30.8 13.4 30.7L11.3 28.6C11.2 28.5 11.125 28.3875 11.075 28.2625C11.025 28.1375 11 28.0083 11 27.875C11 27.7417 11.025 27.6167 11.075 27.5C11.125 27.3833 11.2 27.275 11.3 27.175L16.6 21.875H18.725L19.575 21.025L15.45 16.9H14.025L11 13.875L13.825 11.05L16.85 14.075V15.5L20.975 19.625L23.875 16.725L22.8 15.65L24.2 14.25H21.375L20.675 13.55L24.225 10L24.925 10.7V13.525L26.325 12.125L29.875 15.675C30.1583 15.9583 30.375 16.2792 30.525 16.6375C30.675 16.9958 30.75 17.375 30.75 17.775C30.75 18.175 30.675 18.5583 30.525 18.925C30.375 19.2917 30.1583 19.6167 29.875 19.9L27.75 17.775L26.35 19.175L25.3 18.125L20.125 23.3V25.4L14.825 30.7C14.725 30.8 14.6167 30.875 14.5 30.925C14.3833 30.975 14.2583 31 14.125 31ZM14.125 28.6L18.375 24.35V23.625H17.65L13.4 27.875L14.125 28.6ZM14.125 28.6L13.4 27.875L13.775 28.225L14.125 28.6Z" fill="white"/>
</svg>
