<svg width="18" height="19" viewBox="0 0 18 19" fill="none" xmlns="http://www.w3.org/2000/svg">
<path fill-rule="evenodd" clip-rule="evenodd" d="M4.39582 5.12504C4.39582 2.58223 6.45718 0.520874 8.99999 0.520874C11.5428 0.520874 13.6042 2.58223 13.6042 5.12504C13.6042 7.66785 11.5428 9.72921 8.99999 9.72921C6.45718 9.72921 4.39582 7.66785 4.39582 5.12504ZM8.99999 2.14587C7.35464 2.14587 6.02082 3.47969 6.02082 5.12504C6.02082 6.77039 7.35464 8.10421 8.99999 8.10421C10.6453 8.10421 11.9792 6.77039 11.9792 5.12504C11.9792 3.47969 10.6453 2.14587 8.99999 2.14587Z" fill="#9DB2CE"/>
<path fill-rule="evenodd" clip-rule="evenodd" d="M4.66666 12.9792C3.32046 12.9792 2.22916 14.0705 2.22916 15.4167V16.704C2.22916 16.7236 2.24336 16.7403 2.26271 16.7435C6.72469 17.472 11.2753 17.472 15.7373 16.7435C15.7566 16.7403 15.7708 16.7236 15.7708 16.704V15.4167C15.7708 14.0705 14.6795 12.9792 13.3333 12.9792H12.964C12.9355 12.9792 12.9071 12.9837 12.88 12.9926L11.9423 13.2988C10.0304 13.923 7.96953 13.923 6.05764 13.2988L5.12 12.9926C5.09286 12.9837 5.06448 12.9792 5.03593 12.9792H4.66666ZM0.604156 15.4167C0.604156 13.1731 2.423 11.3542 4.66666 11.3542H5.03593C5.2358 11.3542 5.43441 11.3858 5.6244 11.4479L6.56204 11.754C8.14618 12.2713 9.8538 12.2713 11.4379 11.754L12.3756 11.4479C12.5656 11.3858 12.7642 11.3542 12.964 11.3542H13.3333C15.577 11.3542 17.3958 13.173 17.3958 15.4167V16.704C17.3958 17.52 16.8044 18.2158 15.9991 18.3472C11.3637 19.104 6.63626 19.104 2.00087 18.3472C1.19553 18.2158 0.604156 17.52 0.604156 16.704V15.4167Z" fill="#9DB2CE"/>
</svg>
