<svg width="27" height="26" viewBox="0 0 27 26" fill="none" xmlns="http://www.w3.org/2000/svg">
<path d="M8.89582 4.33337C8.89582 3.88464 8.53205 3.52087 8.08332 3.52087C7.63459 3.52087 7.27082 3.88464 7.27082 4.33337V6.30117C5.65332 6.52985 4.37548 7.8092 4.15916 9.44111L4.0654 10.1485C4.0495 10.2684 4.0343 10.3884 4.01979 10.5085C3.98132 10.8269 4.23222 11.1042 4.553 11.1042H22.4469C22.7677 11.1042 23.0186 10.8269 22.9801 10.5085C22.9656 10.3884 22.9504 10.2684 22.9345 10.1485L22.8407 9.44111C22.6244 7.80921 21.3466 6.52988 19.7291 6.30118V4.33337C19.7291 3.88464 19.3654 3.52087 18.9167 3.52087C18.4679 3.52087 18.1042 3.88464 18.1042 4.33337V6.13998C15.0408 5.86716 11.9592 5.86716 8.89582 6.13997V4.33337Z" fill="#386BF6"/>
<path d="M23.1899 13.2444C23.1804 12.9558 22.9419 12.7292 22.6531 12.7292H4.34676C4.05797 12.7292 3.81946 12.9558 3.80997 13.2444C3.74563 15.2027 3.86458 17.165 4.16654 19.1055C4.39513 20.5746 5.5886 21.7029 7.06815 21.8489L8.36057 21.9763C11.7785 22.3134 15.2214 22.3134 18.6393 21.9763L19.9318 21.8489C21.4113 21.7029 22.6048 20.5746 22.8334 19.1055C23.1353 17.165 23.2543 15.2027 23.1899 13.2444Z" fill="#386BF6"/>
</svg>
