<svg width="44" height="44" viewBox="0 0 44 44" fill="none" xmlns="http://www.w3.org/2000/svg">
<rect width="43.975" height="44" rx="12" fill="#0048FF"/>
<path d="M21.15 32C20.9 32 20.65 31.95 20.4 31.85C20.15 31.75 19.925 31.6 19.725 31.4L12.575 24.25C12.375 24.05 12.2292 23.8292 12.1375 23.5875C12.0458 23.3458 12 23.1 12 22.85C12 22.6 12.0458 22.35 12.1375 22.1C12.2292 21.85 12.375 21.625 12.575 21.425L21.375 12.6C21.5583 12.4167 21.775 12.2708 22.025 12.1625C22.275 12.0542 22.5333 12 22.8 12H29.975C30.525 12 30.9958 12.1958 31.3875 12.5875C31.7792 12.9792 31.975 13.45 31.975 14V21.175C31.975 21.4417 31.925 21.6958 31.825 21.9375C31.725 22.1792 31.5833 22.3917 31.4 22.575L22.575 31.4C22.375 31.6 22.15 31.75 21.9 31.85C21.65 31.95 21.4 32 21.15 32ZM21.15 30L29.975 21.15V14H22.825L14 22.85L21.15 30ZM27.475 18C27.8917 18 28.2458 17.8542 28.5375 17.5625C28.8292 17.2708 28.975 16.9167 28.975 16.5C28.975 16.0833 28.8292 15.7292 28.5375 15.4375C28.2458 15.1458 27.8917 15 27.475 15C27.0583 15 26.7042 15.1458 26.4125 15.4375C26.1208 15.7292 25.975 16.0833 25.975 16.5C25.975 16.9167 26.1208 17.2708 26.4125 17.5625C26.7042 17.8542 27.0583 18 27.475 18Z" fill="#E3E3E3"/>
</svg>
