<svg width="27" height="26" viewBox="0 0 27 26" fill="none" xmlns="http://www.w3.org/2000/svg">
<path fill-rule="evenodd" clip-rule="evenodd" d="M8.08333 3.52087C8.53206 3.52087 8.89583 3.88464 8.89583 4.33337V6.13997C11.9592 5.86716 15.0408 5.86716 18.1042 6.13998V4.33337C18.1042 3.88464 18.4679 3.52087 18.9167 3.52087C19.3654 3.52087 19.7292 3.88464 19.7292 4.33337V6.30118C21.3466 6.52988 22.6244 7.80921 22.8408 9.44111L22.9345 10.1485C23.3289 13.1237 23.2948 16.14 22.8334 19.1055C22.6048 20.5746 21.4113 21.7029 19.9318 21.8489L18.6393 21.9763C15.2214 22.3134 11.7786 22.3134 8.36059 21.9763L7.06817 21.8489C5.58861 21.7029 4.39515 20.5746 4.16655 19.1055C3.7051 16.14 3.67104 13.1237 4.06541 10.1485L4.15917 9.44111C4.37549 7.8092 5.65334 6.52985 7.27083 6.30117V4.33337C7.27083 3.88464 7.6346 3.52087 8.08333 3.52087ZM8.56559 7.80308C11.8472 7.47946 15.1527 7.47946 18.4343 7.80308L19.4152 7.89981C20.3542 7.99241 21.1059 8.71929 21.2299 9.65464L21.3236 10.362C21.3564 10.6091 21.386 10.8565 21.4125 11.1042H5.5874C5.61392 10.8565 5.64356 10.6091 5.67632 10.362L5.77008 9.65465C5.89407 8.71929 6.64571 7.99241 7.58469 7.89981L8.56559 7.80308ZM5.45823 12.7292C5.35187 14.7746 5.45666 16.8277 5.77223 18.8557C5.88689 19.5925 6.48552 20.1585 7.22764 20.2317L8.52006 20.3592C11.832 20.6858 15.168 20.6858 18.4799 20.3592L19.7723 20.2317C20.5144 20.1585 21.113 19.5925 21.2277 18.8557C21.5433 16.8277 21.6481 14.7746 21.5417 12.7292H5.45823Z" fill="#9DB2CE"/>
</svg>
