<svg width="42" height="42" viewBox="0 0 42 42" fill="none" xmlns="http://www.w3.org/2000/svg">
<rect width="42" height="42" rx="12" fill="#0048FF"/>
<path d="M21.15 31C20.9 31 20.65 30.95 20.4 30.85C20.15 30.75 19.925 30.6 19.725 30.4L12.575 23.25C12.375 23.05 12.2292 22.8292 12.1375 22.5875C12.0458 22.3458 12 22.1 12 21.85C12 21.6 12.0458 21.35 12.1375 21.1C12.2292 20.85 12.375 20.625 12.575 20.425L21.375 11.6C21.5583 11.4167 21.775 11.2708 22.025 11.1625C22.275 11.0542 22.5333 11 22.8 11H29.975C30.525 11 30.9958 11.1958 31.3875 11.5875C31.7792 11.9792 31.975 12.45 31.975 13V20.175C31.975 20.4417 31.925 20.6958 31.825 20.9375C31.725 21.1792 31.5833 21.3917 31.4 21.575L22.575 30.4C22.375 30.6 22.15 30.75 21.9 30.85C21.65 30.95 21.4 31 21.15 31ZM21.15 29L29.975 20.15V13H22.825L14 21.85L21.15 29ZM27.475 17C27.8917 17 28.2458 16.8542 28.5375 16.5625C28.8292 16.2708 28.975 15.9167 28.975 15.5C28.975 15.0833 28.8292 14.7292 28.5375 14.4375C28.2458 14.1458 27.8917 14 27.475 14C27.0583 14 26.7042 14.1458 26.4125 14.4375C26.1208 14.7292 25.975 15.0833 25.975 15.5C25.975 15.9167 26.1208 16.2708 26.4125 16.5625C26.7042 16.8542 27.0583 17 27.475 17Z" fill="white"/>
</svg>
